<svg xmlns="http://www.w3.org/2000/svg" width="47.237" height="46.416" viewBox="0 0 47.237 46.416"><g transform="translate(-0.7 -0.7)"><g transform="translate(23.941 23.08)"><path d="M9.392,288.223A1.39,1.39,0,0,0,8.1,289.515v.323l8.078,21.325a1.18,1.18,0,0,0,1.616.646c.323,0,.646-.646.969-.969l2.585-9.693,9.693-2.585c.646-.323,1.292-.969.969-1.616q0-.485-.969-.969L9.716,287.9C10.039,288.223,9.716,288.223,9.392,288.223Z" transform="translate(-8.1 -287.9)" fill="#fff"/></g><path d="M21.679,42.658A20.979,20.979,0,1,1,21.679.7,20.548,20.548,0,0,1,29.8,2.365,21.358,21.358,0,0,1,40.993,13.559a20.548,20.548,0,0,1,1.665,8.12h-.6A20.379,20.379,0,1,0,21.679,42.058Z" fill="#fff"/></g></svg>