<svg xmlns="http://www.w3.org/2000/svg" width="321.237" height="185.017" viewBox="0 0 321.237 185.017"><path d="M35.714.43C28.661,1.877,21.771,6.566,16.854,13.266c-5.74,7.821-7.8,15-7.8,27.253,0,9.682-.881,14.9-4.836,28.719C.212,83.245-.646,89.982.42,99.088c.561,4.79,1.48,8.894,3.807,17,4.353,15.165,4.858,17.929,5.429,29.721.407,8.4.789,10.856,2.529,16.252A35.577,35.577,0,0,0,28.771,181.85a25.478,25.478,0,0,0,14.219,3.125,22.767,22.767,0,0,0,15.372-6.646,31.488,31.488,0,0,0,6.909-9.386c2.884-5.582,5.358-14.026,7.05-24.061,1.559-9.245,1.727-12.768,1.514-31.722-1.368-20.5-1.368-26.621-.067-43.85.033-12.76-.256-18.447-1.3-25.623-1.446-9.93-4.4-20.44-7.625-27.159C61.369,9.3,56.143,4.106,49.928,1.7A27.307,27.307,0,0,0,35.714.43ZM42.89,3.752a10.071,10.071,0,0,1,3.759,3.755c.989,1.92,1.14,3.31,1.362,12.536.124,5.154.4,12.3.614,15.887.636,10.7-.016,16.149-3.386,28.329-4.534,16.39-5.349,36.477-1.005,53,3.015,11.471,3.476,13.383,3.914,16.252a91.107,91.107,0,0,1,.338,19.127c-.259,3.836-.47,10.631-.47,15.1,0,9.05-.167,10.173-1.8,12.15a7.773,7.773,0,0,1-5.048,2.522c-2.135.005-3.451-.606-5.324-2.473-2.065-2.059-3.053-4.316-3.831-8.756-.591-3.37-.389-12.032.471-20.247,1.211-11.558-.526-21.37-4.083-32.21-3.982-12.133-4.81-16.622-4.81-26.062,0-9.416.813-13.821,4.809-26.058,3.569-10.928,5.283-20.746,4.045-32.395a120.432,120.432,0,0,1-.659-13.435c-.026-7.947.151-9.327,1.591-12.39C35.325,4.239,39.5,2.207,42.89,3.752Z" transform="translate(0 0)" fill="#fff" fill-rule="evenodd"/><path d="M155.634,54.034l-.009-25.4-.009-24.863a.54.54,0,0,1,.539-.54H180.7a.539.539,0,0,1,.531.443l.439,2.412c2.437,13.417,2.721,16.1,3.087,29.063.3,10.551.517,12.574,1.945,17.862.927,3.434,1.922,6.053,4.731,12.445,4.294,9.772,5.767,13.9,6.923,19.422a74.142,74.142,0,0,1,.277,30.065c-.471,2.271,1.191-1.409,2.975-6.588a62.176,62.176,0,0,0,3.487-21.522c0-6.334-.23-8.31-2.036-17.131-2.836-13.856-2.86-19.18-.138-30.6a130.624,130.624,0,0,0,3.809-22.4l.06-.987c.516-8.477.7-11.5.833-12.272a.263.263,0,0,1,.286-.211H231.2a.545.545,0,0,1,.54.488c.366,3.389,1.228,7.321,1.679,10.64,1.737,12.77,1.755,17.692.1,27.379-2.283,13.364-2.2,16.725.758,31.479,2.229,11.11,2.629,14.292,2.629,20.937s-.4,9.827-2.629,20.937c-2.96,14.755-3.041,18.128-.757,31.478,2.172,12.693-.026,25.4-1.243,38.018a.54.54,0,0,1-.538.488H209.092a.539.539,0,0,1-.537-.595c1.173-11.173,2.549-22.5,1-33.707-1.807-13.08-1.395-17.493,2.907-31.144,4.319-13.7,4.948-16.949,4.939-25.476-.009-8.557-.516-11.214-4.765-24.941-3.64-11.759-4.172-13.677-4.145-20.794a67.6,67.6,0,0,1,1.044-10.78,113.518,113.518,0,0,0,.264-20.8c-.018-.181-.132-.171-.132.011-.018,4.835-1.048,11.451-3.12,20.057-2,8.308-2.891,14.7-2.591,18.594.062.8.188,2.4.279,3.536.165,2.053.643,4.687,2.6,14.326A60.341,60.341,0,0,1,208.4,89.723a59.4,59.4,0,0,1-2.728,16.58c-1.14,3.765-2.507,7.081-6.035,14.641-6.7,14.36-7.666,18.3-7.991,32.65-.18,7.972-.458,11.713-1.2,16.105-.836,4.956-1.569,10.343-3.464,15.041a.533.533,0,0,1-.5.332h-9.831a.538.538,0,0,1-.54-.52,314.428,314.428,0,0,0-2.773-31.4c-1.845-12.362-1.952-18.32-.576-31.852.914-8.98.674-12.877-1.313-21.3a64.729,64.729,0,0,1-1.334-13.616c-.263-10.171-.449-11.426-2.8-18.994-4.572-14.692-5.818-20.778-6.423-31.372-.538-9.411-1.413-19.518-1.717-19.821-.058-.059-.2,6.914-.316,15.494-.233,17.379-.095,20.549,1.376,31.559a79.6,79.6,0,0,1,.929,13.616,61.176,61.176,0,0,1-.645,11.052,31.979,31.979,0,0,0,0,12.45,62.314,62.314,0,0,1,.657,10.906,80.079,80.079,0,0,1-.939,13.762c-1.486,11.294-1.563,13.377-1.352,36.164.072,7.79,0,15.245.239,23.309a.54.54,0,0,1-.539.556h-2.33a.525.525,0,0,1-.538-.508c-.13-4.492-1.04-37.569-.076-50.3a77.164,77.164,0,0,1,.832-8.151.877.877,0,0,0,.017-.1,117.572,117.572,0,0,0,.169-25.691,58.674,58.674,0,0,1,0-12.3h0c.99-8.516.946-14.9-.176-25.794Z" transform="translate(-71.483 -1.487)" fill="#fff"/><path d="M321.557,17.06c-.674-4.385-1.312-9.1-1.418-10.468l-.2-2.809a.539.539,0,0,1,.538-.577h23.193a.54.54,0,0,1,.538.5l.273,3.685a157.194,157.194,0,0,0,2.2,16.91c1.939,11.633,1.015,21.939-.355,33.814s-1.839,11.979-1.839,36.025.009,24.21,2.088,36.017a99.648,99.648,0,0,1-.086,34.992c-1.47,8.874.078,10.93,1.173,13.073,1.829,3.582,6.567,5.189,12.033,4.081a16.413,16.413,0,0,0,7.263-3.191c5.679-4.212,7.487-11.714,9.908-25.237,2.778-15.524,3.071-22.131,1.73-39.092a221.42,221.42,0,0,1,0-41.288c1.4-17.65,1.126-22.635-2.305-42.606a119.654,119.654,0,0,1-1.679-27.182.537.537,0,0,1,.537-.5h1.621a.54.54,0,0,1,.539.539v8.33c.017,8.837.141,10.049,2.34,22.913,2.985,17.454,3.284,23.757,1.977,41.581A292.14,292.14,0,0,0,381.682,112c.653,8.6.756,21.227.213,26.208-.73,6.692-3.1,20.986-4.2,25.327-3.307,13.069-8.25,19.985-19.192,21.932a47.53,47.53,0,0,1-21.317-1.315c-12.556-4.01-14.245-18.542-14.328-30.038a54.49,54.49,0,0,0-1.038-10.489c-2.57-14.1-2.631-17.312-.611-32.211,1.892-13.956,1.855-20.737-.193-35.724a79.574,79.574,0,0,1-1.087-13.909c-.007-6.343.1-7.293,1.892-17.13C323.489,35.517,322.961,26.192,321.557,17.06Z" transform="translate(-147.291 -1.476)" fill="#fff"/><path d="M450.228,6.479l.208-2.644a.54.54,0,0,1,.538-.5l76.989.08a.541.541,0,0,1,.537.6c-2.311,21.117-.37,42.41-.636,63.1-.189,14.677-.218,14.934-1.712,14.934-1.329,0-1.621-.922-1.621-5.118,0-2.1-.194-5.474-.431-7.5-.492-4.2-4.516-25.742-5.136-34.411s-3.7-21.739-8.127-26.256c-2.034-2.671-4.634-2.776-7.623-2.675a.538.538,0,0,0-.519.524l-.172,6.668c-.1,3.946-.422,10.547-.714,14.009-.38,4.512-.529,9.158-.528,16.4,0,9.584.142,12.592,1.344,28.843.5,6.712.5,36.626,0,43.338-1.205,16.289-1.34,18.594-2.035,29.15-.686,10.411-.4,25.735.119,39.162a.538.538,0,0,1-.539.559l-22.011.012a.545.545,0,0,1-.538-.5c-1.784-21.724-1.037-32.44.934-48.617,2.376-19.5,2.913-27.138,2.913-41.435,0-19.461-3.213-38.492-4.708-57.833a182.7,182.7,0,0,1,.465-23.8c.207-2.647.336-5.019.327-5.9a.36.36,0,0,0-.371-.361,16.388,16.388,0,0,0-4.993.4c-3.311,1.348-6.907,7.924-9.288,16.134-2.038,7.026-2.466,11.16-2.815,27.143-.155,7.086-.481,15.256-.724,18.155s-.443,6.855-.444,8.792c0,3.829-.325,4.828-1.557,4.819-1.817-.012-1.96-.693-1.96-9.3,0-15.147-3.029-29.758-4.889-44.718A159.1,159.1,0,0,1,450.228,6.479Z" transform="translate(-207.266 -1.537)" fill="#fff"/></svg>