<svg xmlns="http://www.w3.org/2000/svg" width="26" height="26.088" viewBox="0 0 26 26.088"><g transform="translate(-0.363 -15.9)"><path d="M42.152,34.09,39.14,31.075a2.858,2.858,0,0,0-2.076-.942,2.955,2.955,0,0,0-2.093.934L33.4,32.637l-.225-.114a5.654,5.654,0,0,1-.514-.278A18.585,18.585,0,0,1,28.226,28.2a11.066,11.066,0,0,1-1.349-2.073c.4-.372.772-.752,1.126-1.116.149-.152.306-.309.458-.461a2.808,2.808,0,0,0,0-4.227l-1.5-1.5c-.17-.17-.332-.334-.5-.509l-.008-.008c-.327-.337-.678-.694-1.03-1.02a2.928,2.928,0,0,0-2.065-.893,3.01,3.01,0,0,0-2.086.9l-1.886,1.886a4.252,4.252,0,0,0-1.281,2.739,9.673,9.673,0,0,0,.724,4.2,23.742,23.742,0,0,0,4.245,7.09h0a26.17,26.17,0,0,0,8.692,6.809l0,0a13.78,13.78,0,0,0,4.941,1.455h.023c.111.005.225.01.347.01a4.374,4.374,0,0,0,3.387-1.455c.015-.018.035-.038.056-.066a11.469,11.469,0,0,1,.85-.881l.071-.068c.289-.276.516-.5.719-.714a3.038,3.038,0,0,0,.921-2.119A2.949,2.949,0,0,0,42.152,34.09ZM20.2,22.1h0a2.212,2.212,0,0,1,.673-1.44l1.865-1.865a.932.932,0,0,1,.62-.3.9.9,0,0,1,.595.306l.015.015c.283.263.557.542.845.835l.132.134.263.268c.086.086.172.175.258.263l1.5,1.5a1.013,1.013,0,0,1,.344.633,1.013,1.013,0,0,1-.344.633c-.078.078-.157.157-.235.238s-.154.157-.233.235l-.106.106c-.423.428-.825.833-1.258,1.22l-.043.043a1.413,1.413,0,0,0-.357,1.557c.005.018.01.03.015.046l.01.025a12.3,12.3,0,0,0,1.822,2.969l0,0a20.527,20.527,0,0,0,4.941,4.5,5.528,5.528,0,0,0,.592.327c.035.018.073.035.109.056l0,0a5.655,5.655,0,0,1,.514.278l.046.025.046.025a1.5,1.5,0,0,0,.683.172,1.453,1.453,0,0,0,1.053-.468l1.878-1.878a.943.943,0,0,1,.613-.319.862.862,0,0,1,.572.309l.005.005,3.032,3.027a.79.79,0,0,1-.02,1.286l-.005.005c-.213.228-.438.445-.65.65l-.061.058a14,14,0,0,0-1.015,1.058,2.313,2.313,0,0,1-1.83.767c-.071,0-.152-.005-.233-.01a11.7,11.7,0,0,1-4.169-1.253,24,24,0,0,1-7.993-6.262A21.952,21.952,0,0,1,20.8,25.406a7.734,7.734,0,0,1-.6-3.306Z" transform="translate(-17.226 0)" fill="#fff"/><path d="M37.085,41.988c-.13,0-.251-.005-.358-.01h-.044a14.24,14.24,0,0,1-5.122-1.5l-.083-.042a26.664,26.664,0,0,1-8.781-6.9,24.226,24.226,0,0,1-4.33-7.238,10.138,10.138,0,0,1-.753-4.412,4.741,4.741,0,0,1,1.427-3.054l1.892-1.892A3.5,3.5,0,0,1,23.364,15.9a3.418,3.418,0,0,1,2.41,1.031c.366.34.732.712,1.042,1.032l.012.012c.149.156.305.315.491.5l1.5,1.5a3.3,3.3,0,0,1,0,4.934c-.151.151-.307.307-.455.458-.27.278-.56.573-.868.87a11.635,11.635,0,0,0,1.124,1.655,18.092,18.092,0,0,0,4.315,3.933c.11.07.242.139.373.205l1.314-1.314a3.444,3.444,0,0,1,2.447-1.08A3.344,3.344,0,0,1,39.5,30.725l3.008,3.011a3.439,3.439,0,0,1,1.083,2.449,3.528,3.528,0,0,1-1.061,2.465c-.228.236-.461.468-.734.729l-.069.067a11.291,11.291,0,0,0-.806.832c-.025.033-.047.058-.062.073l-.018.02A4.849,4.849,0,0,1,37.085,41.988Zm-.353-1.01h.029c.1,0,.212.01.324.01A3.9,3.9,0,0,0,40.1,39.7l.015-.017.011-.012.019-.025a11.984,11.984,0,0,1,.887-.92l.07-.067c.265-.253.489-.475.706-.7a2.55,2.55,0,0,0,.781-1.77,2.463,2.463,0,0,0-.79-1.744L38.78,31.422a2.369,2.369,0,0,0-1.715-.788,2.467,2.467,0,0,0-1.74.788L33.5,33.249l-.325-.168-.22-.111a6.085,6.085,0,0,1-.558-.3,19.076,19.076,0,0,1-4.557-4.148l0-.006a11.589,11.589,0,0,1-1.408-2.167l-.159-.331.268-.251c.4-.37.767-.747,1.11-1.1.152-.155.31-.313.463-.466a2.311,2.311,0,0,0,0-3.518l-1.5-1.5c-.189-.189-.349-.352-.5-.513l-.009-.009c-.3-.312-.66-.675-1.011-1l-.01-.009a2.44,2.44,0,0,0-1.716-.751,2.518,2.518,0,0,0-1.736.756l-1.881,1.881a3.768,3.768,0,0,0-1.136,2.427,9.191,9.191,0,0,0,.694,3.983,23.262,23.262,0,0,0,4.16,6.944A25.667,25.667,0,0,0,31.99,39.57l.076.037A13.2,13.2,0,0,0,36.732,40.978Zm.358-1.07c-.087,0-.177-.006-.264-.011a12.147,12.147,0,0,1-4.352-1.3A24.5,24.5,0,0,1,24.311,32.2a22.439,22.439,0,0,1-3.978-6.624A8.2,8.2,0,0,1,19.7,22.06v0a2.72,2.72,0,0,1,.818-1.75l1.872-1.872a1.412,1.412,0,0,1,.967-.444,1.351,1.351,0,0,1,.952.456l.005.005c.286.266.558.543.846.836l.141.144.131.133.132.134c.086.086.172.175.258.263l1.5,1.5a1.237,1.237,0,0,1,0,1.973c-.077.077-.153.153-.23.232s-.158.161-.238.241l-.106.106c-.457.462-.842.848-1.268,1.23l-.033.033a.917.917,0,0,0-.236,1.045l.014.039a11.806,11.806,0,0,0,1.74,2.834l.011.013A20.046,20.046,0,0,0,31.795,33.6l.005,0a5.067,5.067,0,0,0,.54.3l.026.013c.031.015.07.034.11.057l0,0c.174.086.355.18.52.283l.027.015.038.021h0a1,1,0,0,0,.452.116.959.959,0,0,0,.7-.32l1.88-1.88a1.394,1.394,0,0,1,.966-.465,1.32,1.32,0,0,1,.931.461l3.031,3.026a1.271,1.271,0,0,1-.013,1.986l-.006.006c-.224.24-.457.464-.663.663l-.062.059a13.566,13.566,0,0,0-.978,1.018l-.018.02A2.813,2.813,0,0,1,37.09,39.908ZM20.7,22.142a7.265,7.265,0,0,0,.573,3.089,21.474,21.474,0,0,0,3.809,6.332,23.5,23.5,0,0,0,7.827,6.131,11.22,11.22,0,0,0,3.983,1.2c.071,0,.145.009.2.009a1.827,1.827,0,0,0,1.456-.6,14.476,14.476,0,0,1,1.041-1.085l.063-.06c.2-.191.423-.408.631-.631l.013-.013c.183-.191.2-.288.2-.313a.51.51,0,0,0-.175-.27l-3.049-3.044a.473.473,0,0,0-.208-.15.53.53,0,0,0-.258.173l-1.878,1.878a1.96,1.96,0,0,1-1.406.615,1.988,1.988,0,0,1-.911-.227l-.047-.026-.084-.047a5.249,5.249,0,0,0-.467-.252l-.074-.036-.007-.006,0,0L31.9,34.8a5.994,5.994,0,0,1-.64-.353,21.013,21.013,0,0,1-5.041-4.585l0,0-.021-.025A12.776,12.776,0,0,1,24.3,26.742l-.025-.066c-.005-.015-.011-.031-.016-.049a1.915,1.915,0,0,1,.481-2.059l.063-.062c.408-.365.785-.743,1.236-1.2l.108-.108c.077-.077.153-.153.227-.23s.161-.163.241-.244a.7.7,0,0,0,.2-.279.7.7,0,0,0-.2-.279l-1.506-1.506c-.084-.087-.169-.174-.253-.258l0-.005-.129-.132-.134-.137-.139-.141c-.282-.287-.548-.557-.82-.81L23.6,19.15a.475.475,0,0,0-.241-.16.493.493,0,0,0-.27.161l-1.862,1.862A1.713,1.713,0,0,0,20.7,22.142Z" transform="translate(-17.226 0)" fill="#fff"/></g></svg>