<svg xmlns="http://www.w3.org/2000/svg" width="62.268" height="62.264" viewBox="0 0 62.268 62.264"><path d="M60.16,46.282a22.276,22.276,0,0,0-28.087-14.3M46.285,3.875A22.311,22.311,0,0,0,32,31.993M3.839,17.718a22.276,22.276,0,0,0,28.087,14.3M17.714,60.125A22.311,22.311,0,0,0,32,32.007m30-9.843a22.27,22.27,0,0,0-29.961,9.771M22.236,2A22.317,22.317,0,0,0,32,31.994M2,41.836a22.269,22.269,0,0,0,29.961-9.771M41.764,62A22.317,22.317,0,0,0,32,32.006" transform="translate(-0.866 -0.868)" fill="none" stroke="#fff" stroke-width="5"/></svg>